<svg id="svg" version="1.1" xmlns="http://www.w3.org/2000/svg" xmlns:xlink="http://www.w3.org/1999/xlink" width="400" height="400" viewBox="0, 0, 400,400"><g id="svgg"><path id="path0" d="M131.800 114.805 C 110.221 117.024,100.679 139.791,113.970 157.348 C 120.261 165.657,122.366 169.424,124.814 176.747 C 128.438 187.587,128.467 187.988,128.768 231.600 C 129.060 273.844,128.793 270.047,131.908 276.218 C 140.910 294.051,167.973 294.248,177.081 276.547 C 180.462 269.976,180.200 273.924,180.197 229.600 C 180.193 184.078,180.159 183.504,176.620 169.200 C 171.559 148.743,157.850 125.242,147.057 118.519 C 144.260 116.777,136.357 114.143,134.875 114.459 C 134.724 114.491,133.340 114.647,131.800 114.805 " stroke="none" fill="#fafafb" fill-rule="evenodd"></path><path id="path1" d="M202.200 108.776 C 200.220 108.936,198.150 109.171,197.600 109.298 C 197.050 109.426,195.520 109.740,194.200 109.998 C 187.934 111.218,183.248 112.703,177.112 115.412 C 171.620 117.837,169.027 119.321,168.871 120.129 C 168.758 120.714,169.920 122.465,174.762 129.008 C 175.416 129.892,176.192 131.062,176.486 131.608 C 176.780 132.153,177.514 133.366,178.117 134.303 C 181.302 139.248,186.104 149.845,188.312 156.800 C 189.012 159.003,190.800 165.799,190.800 166.255 C 190.800 166.678,191.844 166.273,193.328 165.275 C 209.656 154.286,232.141 162.771,237.123 181.800 C 238.281 186.224,238.405 190.768,238.403 228.680 C 238.400 263.039,238.474 267.831,239.038 269.880 C 239.389 271.156,239.794 272.665,239.938 273.233 C 240.941 277.187,246.099 283.254,250.783 285.990 C 265.717 294.712,282.739 288.100,288.859 271.200 L 289.800 268.600 289.800 225.600 C 289.800 180.272,289.850 181.691,287.935 172.200 C 282.324 144.378,258.589 118.660,232.400 112.024 C 231.630 111.829,230.010 111.411,228.800 111.094 C 227.590 110.778,225.520 110.304,224.200 110.040 C 222.880 109.777,220.990 109.399,220.000 109.199 C 217.469 108.690,206.500 108.429,202.200 108.776 " stroke="none" fill="#faac14" fill-rule="evenodd"></path><path id="path2" d="M172.100 0.281 C 170.505 0.366,169.200 0.607,169.200 0.818 C 169.200 1.028,168.120 1.200,166.800 1.200 C 165.467 1.200,164.400 1.378,164.400 1.600 C 164.400 1.820,163.410 2.000,162.200 2.000 C 160.990 2.000,160.000 2.180,160.000 2.400 C 160.000 2.620,159.100 2.800,158.000 2.800 C 156.900 2.800,156.000 2.980,156.000 3.200 C 156.000 3.420,155.280 3.600,154.400 3.600 C 153.520 3.600,152.800 3.780,152.800 4.000 C 152.800 4.220,152.080 4.400,151.200 4.400 C 150.320 4.400,149.600 4.580,149.600 4.800 C 149.600 5.020,148.880 5.200,148.000 5.200 C 147.120 5.200,146.400 5.380,146.400 5.600 C 146.400 5.820,145.860 6.000,145.200 6.000 C 144.540 6.000,144.000 6.180,144.000 6.400 C 144.000 6.620,143.370 6.800,142.600 6.800 C 141.830 6.800,141.200 6.980,141.200 7.200 C 141.200 7.420,140.660 7.600,140.000 7.600 C 139.340 7.600,138.800 7.780,138.800 8.000 C 138.800 8.220,138.379 8.400,137.865 8.400 C 136.745 8.400,130.360 10.340,129.820 10.845 C 129.611 11.040,129.037 11.200,128.544 11.200 C 128.051 11.200,127.536 11.380,127.400 11.600 C 127.264 11.820,126.803 12.000,126.376 12.000 C 125.949 12.000,125.600 12.180,125.600 12.400 C 125.600 12.620,125.161 12.800,124.624 12.800 C 124.087 12.800,123.536 12.980,123.400 13.200 C 123.264 13.420,122.803 13.600,122.376 13.600 C 121.949 13.600,121.600 13.780,121.600 14.000 C 121.600 14.220,121.328 14.400,120.995 14.400 C 120.662 14.400,119.987 14.608,119.495 14.862 C 117.618 15.833,117.193 16.000,116.605 16.000 C 116.272 16.000,116.000 16.180,116.000 16.400 C 116.000 16.620,115.640 16.800,115.200 16.800 C 114.760 16.800,114.400 16.980,114.400 17.200 C 114.400 17.420,114.040 17.600,113.600 17.600 C 113.160 17.600,112.800 17.780,112.800 18.000 C 112.800 18.220,112.440 18.400,112.000 18.400 C 111.560 18.400,111.200 18.546,111.200 18.725 C 111.200 18.904,110.570 19.298,109.800 19.600 C 109.030 19.902,108.400 20.296,108.400 20.475 C 108.400 20.654,108.040 20.800,107.600 20.800 C 107.160 20.800,106.800 20.980,106.800 21.200 C 106.800 21.420,106.440 21.600,106.000 21.600 C 105.560 21.600,105.200 21.780,105.200 22.000 C 105.200 22.220,104.840 22.400,104.400 22.400 C 103.960 22.400,103.600 22.580,103.600 22.800 C 103.600 23.020,103.280 23.200,102.888 23.200 C 102.497 23.200,101.917 23.560,101.600 24.000 C 101.283 24.440,100.703 24.800,100.312 24.800 C 99.920 24.800,99.600 24.980,99.600 25.200 C 99.600 25.420,99.238 25.600,98.795 25.600 C 97.904 25.600,96.660 26.231,95.445 27.300 C 95.007 27.685,94.509 28.000,94.337 28.000 C 93.442 28.000,88.000 32.097,88.000 32.771 C 88.000 33.007,87.680 33.200,87.288 33.200 C 86.897 33.200,86.317 33.560,86.000 34.000 C 85.683 34.440,85.143 34.800,84.800 34.800 C 84.457 34.800,83.917 35.160,83.600 35.600 C 83.283 36.040,82.820 36.400,82.571 36.400 C 82.322 36.400,81.554 36.940,80.863 37.600 C 80.172 38.260,79.439 38.800,79.234 38.800 C 79.029 38.800,78.156 39.520,77.293 40.400 C 76.431 41.280,75.562 42.005,75.362 42.011 C 75.163 42.017,74.220 42.737,73.266 43.611 C 72.312 44.485,71.371 45.200,71.174 45.200 C 70.978 45.200,69.868 46.147,68.709 47.305 C 67.549 48.462,65.970 49.845,65.200 50.379 C 64.430 50.912,63.132 52.035,62.316 52.874 C 61.500 53.713,60.726 54.400,60.597 54.400 C 60.134 54.400,54.526 60.396,51.058 64.600 C 50.150 65.700,48.911 67.077,48.304 67.660 C 47.697 68.244,47.200 68.918,47.200 69.158 C 47.200 69.399,46.300 70.515,45.200 71.639 C 44.100 72.762,43.200 73.933,43.200 74.241 C 43.200 74.548,43.065 74.801,42.900 74.803 C 42.735 74.804,42.150 75.469,41.600 76.280 C 41.050 77.091,40.195 78.162,39.700 78.659 C 39.205 79.157,38.800 79.770,38.800 80.021 C 38.800 80.273,38.260 80.983,37.600 81.600 C 36.940 82.217,36.400 82.969,36.400 83.272 C 36.400 83.575,36.040 84.083,35.600 84.400 C 35.160 84.717,34.800 85.257,34.800 85.600 C 34.800 85.943,34.440 86.483,34.000 86.800 C 33.560 87.117,33.200 87.697,33.200 88.088 C 33.200 88.480,33.007 88.800,32.771 88.800 C 32.218 88.800,31.461 89.566,30.809 90.783 C 30.525 91.315,30.123 91.941,29.916 92.175 C 29.329 92.838,27.815 95.518,26.171 98.800 C 25.345 100.450,24.519 101.860,24.335 101.933 C 24.151 102.007,24.000 102.412,24.000 102.833 C 24.000 103.255,23.820 103.600,23.600 103.600 C 23.380 103.600,23.200 103.960,23.200 104.400 C 23.200 104.840,23.020 105.200,22.800 105.200 C 22.580 105.200,22.400 105.560,22.400 106.000 C 22.400 106.440,22.220 106.800,22.000 106.800 C 21.780 106.800,21.600 107.160,21.600 107.600 C 21.600 108.040,21.454 108.400,21.275 108.400 C 21.096 108.400,20.702 109.030,20.400 109.800 C 20.098 110.570,19.704 111.200,19.525 111.200 C 19.346 111.200,19.200 111.560,19.200 112.000 C 19.200 112.440,19.020 112.800,18.800 112.800 C 18.580 112.800,18.400 113.160,18.400 113.600 C 18.400 114.040,18.220 114.400,18.000 114.400 C 17.780 114.400,17.600 114.672,17.600 115.005 C 17.600 115.593,17.433 116.018,16.462 117.895 C 16.208 118.387,16.000 119.062,16.000 119.395 C 16.000 119.728,15.820 120.000,15.600 120.000 C 15.380 120.000,15.200 120.360,15.200 120.800 C 15.200 121.240,15.020 121.600,14.800 121.600 C 14.580 121.600,14.400 122.140,14.400 122.800 C 14.400 123.460,14.220 124.000,14.000 124.000 C 13.780 124.000,13.600 124.349,13.600 124.776 C 13.600 125.203,13.420 125.664,13.200 125.800 C 12.980 125.936,12.800 126.476,12.800 127.000 C 12.800 127.524,12.654 128.043,12.475 128.154 C 12.297 128.264,11.735 129.670,11.228 131.277 C 10.720 132.885,10.166 134.560,9.996 135.000 C 9.212 137.031,8.400 140.197,8.400 141.222 C 8.400 141.844,8.220 142.464,8.000 142.600 C 7.780 142.736,7.600 143.276,7.600 143.800 C 7.600 144.324,7.420 144.864,7.200 145.000 C 6.980 145.136,6.800 145.867,6.800 146.624 C 6.800 147.381,6.620 148.000,6.400 148.000 C 6.180 148.000,6.000 148.720,6.000 149.600 C 6.000 150.480,5.820 151.200,5.600 151.200 C 5.380 151.200,5.200 151.920,5.200 152.800 C 5.200 153.680,5.020 154.400,4.800 154.400 C 4.580 154.400,4.400 155.300,4.400 156.400 C 4.400 157.500,4.220 158.400,4.000 158.400 C 3.780 158.400,3.600 159.289,3.600 160.376 C 3.600 161.463,3.420 162.464,3.200 162.600 C 2.980 162.736,2.800 163.917,2.800 165.224 C 2.800 166.541,2.622 167.600,2.400 167.600 C 2.171 167.600,2.000 168.800,2.000 170.400 C 2.000 172.000,1.829 173.200,1.600 173.200 C 1.361 173.200,1.200 174.733,1.200 177.000 C 1.200 179.267,1.039 180.800,0.800 180.800 C 0.250 180.800,0.250 217.460,0.800 217.800 C 1.020 217.936,1.200 219.657,1.200 221.624 C 1.200 223.741,1.363 225.200,1.600 225.200 C 1.829 225.200,2.000 226.400,2.000 228.000 C 2.000 229.600,2.171 230.800,2.400 230.800 C 2.622 230.800,2.800 231.859,2.800 233.176 C 2.800 234.483,2.980 235.664,3.200 235.800 C 3.420 235.936,3.600 236.937,3.600 238.024 C 3.600 239.111,3.780 240.000,4.000 240.000 C 4.220 240.000,4.400 240.900,4.400 242.000 C 4.400 243.100,4.580 244.000,4.800 244.000 C 5.020 244.000,5.200 244.720,5.200 245.600 C 5.200 246.480,5.380 247.200,5.600 247.200 C 5.820 247.200,6.000 247.920,6.000 248.800 C 6.000 249.680,6.180 250.400,6.400 250.400 C 6.620 250.400,6.800 251.120,6.800 252.000 C 6.800 252.880,6.980 253.600,7.200 253.600 C 7.420 253.600,7.600 254.140,7.600 254.800 C 7.600 255.460,7.780 256.000,8.000 256.000 C 8.220 256.000,8.400 256.519,8.400 257.154 C 8.400 258.341,9.391 262.060,10.037 263.295 C 10.237 263.677,10.400 264.264,10.400 264.600 C 10.400 264.936,10.559 265.523,10.753 265.905 C 11.499 267.373,12.800 271.046,12.800 271.684 C 12.800 272.052,12.980 272.464,13.200 272.600 C 13.420 272.736,13.600 273.197,13.600 273.624 C 13.600 274.051,13.780 274.400,14.000 274.400 C 14.220 274.400,14.400 274.940,14.400 275.600 C 14.400 276.260,14.580 276.800,14.800 276.800 C 15.020 276.800,15.200 277.160,15.200 277.600 C 15.200 278.040,15.380 278.400,15.600 278.400 C 15.820 278.400,16.000 278.672,16.000 279.005 C 16.000 279.338,16.208 280.013,16.462 280.505 C 17.433 282.382,17.600 282.807,17.600 283.395 C 17.600 283.728,17.780 284.000,18.000 284.000 C 18.220 284.000,18.400 284.360,18.400 284.800 C 18.400 285.240,18.580 285.600,18.800 285.600 C 19.020 285.600,19.200 285.960,19.200 286.400 C 19.200 286.840,19.380 287.200,19.600 287.200 C 19.820 287.200,20.000 287.560,20.000 288.000 C 20.000 288.440,20.146 288.800,20.325 288.800 C 20.504 288.800,20.898 289.430,21.200 290.200 C 21.502 290.970,21.896 291.600,22.075 291.600 C 22.254 291.600,22.400 291.960,22.400 292.400 C 22.400 292.840,22.580 293.200,22.800 293.200 C 23.020 293.200,23.200 293.560,23.200 294.000 C 23.200 294.440,23.380 294.800,23.600 294.800 C 23.820 294.800,24.000 295.145,24.000 295.567 C 24.000 295.988,24.149 296.393,24.331 296.467 C 24.513 296.540,25.290 297.860,26.058 299.400 C 26.826 300.940,27.937 302.961,28.527 303.892 C 29.117 304.823,29.600 305.768,29.600 305.992 C 29.600 306.216,29.768 306.400,29.973 306.400 C 30.178 306.400,30.454 306.739,30.585 307.152 C 30.903 308.154,32.180 309.600,32.747 309.600 C 32.996 309.600,33.200 309.920,33.200 310.312 C 33.200 310.703,33.560 311.283,34.000 311.600 C 34.440 311.917,34.800 312.457,34.800 312.800 C 34.800 313.143,35.160 313.683,35.600 314.000 C 36.040 314.317,36.400 314.825,36.400 315.128 C 36.400 315.431,36.940 316.183,37.600 316.800 C 38.260 317.417,38.800 318.169,38.800 318.472 C 38.800 318.775,39.160 319.283,39.600 319.600 C 40.040 319.917,40.400 320.407,40.400 320.688 C 40.400 320.970,40.580 321.200,40.800 321.200 C 41.020 321.200,41.200 321.470,41.200 321.800 C 41.200 322.130,41.335 322.401,41.500 322.403 C 41.665 322.404,42.250 323.071,42.800 323.885 C 43.350 324.699,44.565 326.133,45.500 327.072 C 46.435 328.011,47.200 328.975,47.200 329.215 C 47.200 329.456,48.063 330.495,49.117 331.526 C 50.171 332.557,51.593 334.215,52.275 335.212 C 53.862 337.527,62.427 346.105,64.744 347.699 C 65.717 348.368,67.582 349.969,68.891 351.258 C 70.199 352.546,71.434 353.600,71.634 353.600 C 71.835 353.600,72.741 354.320,73.648 355.200 C 74.555 356.080,75.432 356.800,75.598 356.800 C 75.764 356.800,76.587 357.430,77.428 358.200 C 78.269 358.970,79.103 359.600,79.282 359.600 C 79.461 359.600,80.172 360.140,80.863 360.800 C 81.554 361.460,82.322 362.000,82.571 362.000 C 82.820 362.000,83.283 362.360,83.600 362.800 C 83.917 363.240,84.457 363.600,84.800 363.600 C 85.143 363.600,85.683 363.960,86.000 364.400 C 86.317 364.840,86.857 365.200,87.200 365.200 C 87.543 365.200,88.083 365.560,88.400 366.000 C 88.717 366.440,89.297 366.800,89.688 366.800 C 90.080 366.800,90.400 366.993,90.400 367.229 C 90.400 368.124,94.673 371.074,98.853 373.064 C 100.313 373.759,101.629 374.524,101.778 374.764 C 101.926 375.004,102.397 375.200,102.824 375.200 C 103.251 375.200,103.600 375.380,103.600 375.600 C 103.600 375.820,103.960 376.000,104.400 376.000 C 104.840 376.000,105.200 376.180,105.200 376.400 C 105.200 376.620,105.560 376.800,106.000 376.800 C 106.440 376.800,106.800 376.980,106.800 377.200 C 106.800 377.420,107.160 377.600,107.600 377.600 C 108.040 377.600,108.400 377.746,108.400 377.925 C 108.400 378.104,109.030 378.498,109.800 378.800 C 110.570 379.102,111.200 379.496,111.200 379.675 C 111.200 379.854,111.560 380.000,112.000 380.000 C 112.440 380.000,112.800 380.180,112.800 380.400 C 112.800 380.620,113.160 380.800,113.600 380.800 C 114.040 380.800,114.400 380.980,114.400 381.200 C 114.400 381.420,114.760 381.600,115.200 381.600 C 115.640 381.600,116.000 381.780,116.000 382.000 C 116.000 382.220,116.360 382.400,116.800 382.400 C 117.240 382.400,117.600 382.580,117.600 382.800 C 117.600 383.020,118.039 383.200,118.576 383.200 C 119.113 383.200,119.664 383.380,119.800 383.600 C 119.936 383.820,120.397 384.000,120.824 384.000 C 121.251 384.000,121.600 384.180,121.600 384.400 C 121.600 384.620,121.960 384.800,122.400 384.800 C 122.840 384.800,123.200 384.980,123.200 385.200 C 123.200 385.420,123.740 385.600,124.400 385.600 C 125.060 385.600,125.600 385.780,125.600 386.000 C 125.600 386.220,125.949 386.400,126.376 386.400 C 126.803 386.400,127.264 386.580,127.400 386.800 C 127.536 387.020,128.076 387.200,128.600 387.200 C 129.124 387.200,129.649 387.355,129.766 387.545 C 129.883 387.735,130.839 388.121,131.890 388.404 C 132.940 388.687,133.971 389.071,134.180 389.259 C 134.389 389.447,134.886 389.600,135.285 389.600 C 135.684 389.600,136.323 389.763,136.705 389.963 C 137.940 390.609,141.659 391.600,142.846 391.600 C 143.481 391.600,144.000 391.780,144.000 392.000 C 144.000 392.220,144.540 392.400,145.200 392.400 C 145.860 392.400,146.400 392.580,146.400 392.800 C 146.400 393.020,147.120 393.200,148.000 393.200 C 148.880 393.200,149.600 393.380,149.600 393.600 C 149.600 393.820,150.320 394.000,151.200 394.000 C 152.080 394.000,152.800 394.180,152.800 394.400 C 152.800 394.620,153.520 394.800,154.400 394.800 C 155.280 394.800,156.000 394.980,156.000 395.200 C 156.000 395.420,156.900 395.600,158.000 395.600 C 159.100 395.600,160.000 395.780,160.000 396.000 C 160.000 396.220,160.889 396.400,161.976 396.400 C 163.063 396.400,164.064 396.580,164.200 396.800 C 164.336 397.020,165.517 397.200,166.824 397.200 C 168.141 397.200,169.200 397.378,169.200 397.600 C 169.200 397.829,170.400 398.000,172.000 398.000 C 173.600 398.000,174.800 398.171,174.800 398.400 C 174.800 398.637,176.259 398.800,178.376 398.800 C 180.343 398.800,182.064 398.980,182.200 399.200 C 182.539 399.749,219.061 399.749,219.400 399.200 C 219.536 398.980,221.257 398.800,223.224 398.800 C 225.341 398.800,226.800 398.637,226.800 398.400 C 226.800 398.171,228.000 398.000,229.600 398.000 C 231.200 398.000,232.400 397.829,232.400 397.600 C 232.400 397.378,233.459 397.200,234.776 397.200 C 236.083 397.200,237.264 397.020,237.400 396.800 C 237.536 396.580,238.537 396.400,239.624 396.400 C 240.711 396.400,241.600 396.220,241.600 396.000 C 241.600 395.780,242.500 395.600,243.600 395.600 C 244.700 395.600,245.600 395.420,245.600 395.200 C 245.600 394.980,246.320 394.800,247.200 394.800 C 248.080 394.800,248.800 394.620,248.800 394.400 C 248.800 394.180,249.520 394.000,250.400 394.000 C 251.280 394.000,252.000 393.820,252.000 393.600 C 252.000 393.380,252.619 393.200,253.376 393.200 C 254.133 393.200,254.864 393.020,255.000 392.800 C 255.136 392.580,255.777 392.400,256.424 392.400 C 257.071 392.400,257.600 392.243,257.600 392.052 C 257.600 391.860,258.675 391.582,259.988 391.433 C 261.301 391.285,262.482 390.991,262.611 390.782 C 262.741 390.572,263.199 390.400,263.629 390.400 C 264.059 390.400,264.723 390.238,265.105 390.041 C 265.487 389.844,267.115 389.270,268.723 388.766 C 270.330 388.262,271.736 387.703,271.846 387.525 C 271.957 387.346,272.476 387.200,273.000 387.200 C 273.524 387.200,274.064 387.020,274.200 386.800 C 274.336 386.580,274.797 386.400,275.224 386.400 C 275.651 386.400,276.000 386.220,276.000 386.000 C 276.000 385.780,276.540 385.600,277.200 385.600 C 277.860 385.600,278.400 385.420,278.400 385.200 C 278.400 384.980,278.760 384.800,279.200 384.800 C 279.640 384.800,280.000 384.620,280.000 384.400 C 280.000 384.180,280.272 384.000,280.605 384.000 C 280.938 384.000,281.613 383.792,282.105 383.538 C 283.982 382.567,284.407 382.400,284.995 382.400 C 285.328 382.400,285.600 382.220,285.600 382.000 C 285.600 381.780,285.960 381.600,286.400 381.600 C 286.840 381.600,287.200 381.420,287.200 381.200 C 287.200 380.980,287.560 380.800,288.000 380.800 C 288.440 380.800,288.800 380.654,288.800 380.475 C 288.800 380.296,289.430 379.902,290.200 379.600 C 290.970 379.298,291.600 378.904,291.600 378.725 C 291.600 378.546,291.960 378.400,292.400 378.400 C 292.840 378.400,293.200 378.220,293.200 378.000 C 293.200 377.780,293.560 377.600,294.000 377.600 C 294.440 377.600,294.800 377.420,294.800 377.200 C 294.800 376.980,295.160 376.800,295.600 376.800 C 296.040 376.800,296.400 376.620,296.400 376.400 C 296.400 376.180,296.745 376.000,297.167 376.000 C 297.588 376.000,297.993 375.863,298.067 375.696 C 298.140 375.529,299.550 374.701,301.200 373.856 C 304.614 372.109,307.203 370.635,307.825 370.084 C 308.059 369.877,308.685 369.475,309.217 369.191 C 310.434 368.539,311.200 367.782,311.200 367.229 C 311.200 366.993,311.520 366.800,311.912 366.800 C 312.303 366.800,312.883 366.440,313.200 366.000 C 313.517 365.560,314.057 365.200,314.400 365.200 C 314.743 365.200,315.283 364.840,315.600 364.400 C 315.917 363.960,316.425 363.600,316.728 363.600 C 317.031 363.600,317.783 363.060,318.400 362.400 C 319.017 361.740,319.769 361.200,320.072 361.200 C 320.375 361.200,320.883 360.840,321.200 360.400 C 321.517 359.960,321.924 359.600,322.105 359.600 C 322.461 359.600,323.128 359.104,324.656 357.700 C 325.195 357.205,325.790 356.800,325.978 356.800 C 326.165 356.800,327.238 355.900,328.361 354.800 C 329.485 353.700,330.601 352.800,330.842 352.800 C 331.082 352.800,331.756 352.300,332.340 351.689 C 332.923 351.078,334.839 349.413,336.597 347.989 C 340.462 344.859,347.614 337.677,349.322 335.211 C 350.004 334.226,351.515 332.467,352.681 331.302 C 353.846 330.136,354.800 329.025,354.800 328.833 C 354.800 328.641,355.610 327.626,356.600 326.578 C 357.590 325.530,358.400 324.544,358.400 324.387 C 358.400 324.229,359.030 323.413,359.800 322.572 C 360.570 321.731,361.200 320.897,361.200 320.718 C 361.200 320.539,361.740 319.828,362.400 319.137 C 363.060 318.446,363.600 317.678,363.600 317.429 C 363.600 317.180,363.960 316.717,364.400 316.400 C 364.840 316.083,365.200 315.543,365.200 315.200 C 365.200 314.857,365.560 314.317,366.000 314.000 C 366.440 313.683,366.800 313.103,366.800 312.712 C 366.800 312.320,366.993 312.000,367.229 312.000 C 367.903 312.000,372.000 306.558,372.000 305.663 C 372.000 305.491,372.321 305.002,372.714 304.575 C 373.526 303.694,375.200 300.271,375.200 299.493 C 375.200 299.209,375.560 298.717,376.000 298.400 C 376.440 298.083,376.800 297.503,376.800 297.112 C 376.800 296.720,376.980 296.400,377.200 296.400 C 377.420 296.400,377.600 296.040,377.600 295.600 C 377.600 295.160,377.780 294.800,378.000 294.800 C 378.220 294.800,378.400 294.440,378.400 294.000 C 378.400 293.560,378.580 293.200,378.800 293.200 C 379.020 293.200,379.200 292.840,379.200 292.400 C 379.200 291.960,379.346 291.600,379.525 291.600 C 379.704 291.600,380.098 290.970,380.400 290.200 C 380.702 289.430,381.096 288.800,381.275 288.800 C 381.454 288.800,381.600 288.440,381.600 288.000 C 381.600 287.560,381.780 287.200,382.000 287.200 C 382.220 287.200,382.400 286.840,382.400 286.400 C 382.400 285.960,382.580 285.600,382.800 285.600 C 383.020 285.600,383.200 285.240,383.200 284.800 C 383.200 284.360,383.380 284.000,383.600 284.000 C 383.820 284.000,384.000 283.728,384.000 283.395 C 384.000 283.062,384.180 282.432,384.400 281.995 C 384.620 281.558,384.980 280.842,385.200 280.405 C 385.420 279.968,385.600 279.338,385.600 279.005 C 385.600 278.672,385.780 278.400,386.000 278.400 C 386.220 278.400,386.400 278.051,386.400 277.624 C 386.400 277.197,386.580 276.736,386.800 276.600 C 387.020 276.464,387.200 275.913,387.200 275.376 C 387.200 274.839,387.380 274.400,387.600 274.400 C 387.820 274.400,388.000 274.051,388.000 273.624 C 388.000 273.197,388.180 272.736,388.400 272.600 C 388.620 272.464,388.800 271.949,388.800 271.456 C 388.800 270.963,388.960 270.389,389.155 270.180 C 389.660 269.640,391.600 263.255,391.600 262.135 C 391.600 261.621,391.780 261.200,392.000 261.200 C 392.220 261.200,392.400 260.660,392.400 260.000 C 392.400 259.340,392.580 258.800,392.800 258.800 C 393.020 258.800,393.200 258.170,393.200 257.400 C 393.200 256.630,393.380 256.000,393.600 256.000 C 393.820 256.000,394.000 255.460,394.000 254.800 C 394.000 254.140,394.180 253.600,394.400 253.600 C 394.620 253.600,394.800 252.880,394.800 252.000 C 394.800 251.120,394.980 250.400,395.200 250.400 C 395.420 250.400,395.600 249.680,395.600 248.800 C 395.600 247.920,395.780 247.200,396.000 247.200 C 396.220 247.200,396.400 246.480,396.400 245.600 C 396.400 244.720,396.580 244.000,396.800 244.000 C 397.020 244.000,397.200 243.100,397.200 242.000 C 397.200 240.900,397.380 240.000,397.600 240.000 C 397.820 240.000,398.000 239.111,398.000 238.024 C 398.000 236.937,398.180 235.936,398.400 235.800 C 398.620 235.664,398.800 234.498,398.800 233.210 C 398.800 231.691,398.976 230.808,399.300 230.700 C 399.694 230.569,399.800 223.911,399.800 199.200 C 399.800 174.489,399.694 167.831,399.300 167.700 C 398.976 167.592,398.800 166.709,398.800 165.190 C 398.800 163.902,398.620 162.736,398.400 162.600 C 398.180 162.464,398.000 161.463,398.000 160.376 C 398.000 159.289,397.820 158.400,397.600 158.400 C 397.380 158.400,397.200 157.500,397.200 156.400 C 397.200 155.300,397.020 154.400,396.800 154.400 C 396.580 154.400,396.400 153.680,396.400 152.800 C 396.400 151.920,396.220 151.200,396.000 151.200 C 395.780 151.200,395.600 150.480,395.600 149.600 C 395.600 148.720,395.420 148.000,395.200 148.000 C 394.980 148.000,394.800 147.381,394.800 146.624 C 394.800 145.867,394.620 145.136,394.400 145.000 C 394.180 144.864,394.000 144.324,394.000 143.800 C 394.000 143.276,393.820 142.736,393.600 142.600 C 393.380 142.464,393.200 141.733,393.200 140.976 C 393.200 140.219,393.020 139.600,392.800 139.600 C 392.580 139.600,392.400 139.060,392.400 138.400 C 392.400 137.740,392.220 137.200,392.000 137.200 C 391.780 137.200,391.600 136.759,391.600 136.221 C 391.600 135.061,389.682 128.767,389.161 128.220 C 388.963 128.011,388.800 127.437,388.800 126.944 C 388.800 126.451,388.620 125.936,388.400 125.800 C 388.180 125.664,388.000 125.203,388.000 124.776 C 388.000 124.349,387.820 124.000,387.600 124.000 C 387.380 124.000,387.200 123.561,387.200 123.024 C 387.200 122.487,387.020 121.936,386.800 121.800 C 386.580 121.664,386.400 121.203,386.400 120.776 C 386.400 120.349,386.220 120.000,386.000 120.000 C 385.780 120.000,385.600 119.728,385.600 119.395 C 385.600 119.062,385.420 118.432,385.200 117.995 C 384.980 117.558,384.620 116.842,384.400 116.405 C 384.180 115.968,384.000 115.338,384.000 115.005 C 384.000 114.672,383.820 114.400,383.600 114.400 C 383.380 114.400,383.200 114.040,383.200 113.600 C 383.200 113.160,383.020 112.800,382.800 112.800 C 382.580 112.800,382.400 112.440,382.400 112.000 C 382.400 111.560,382.254 111.200,382.075 111.200 C 381.896 111.200,381.502 110.570,381.200 109.800 C 380.898 109.030,380.504 108.400,380.325 108.400 C 380.146 108.400,380.000 108.040,380.000 107.600 C 380.000 107.160,379.820 106.800,379.600 106.800 C 379.380 106.800,379.200 106.440,379.200 106.000 C 379.200 105.560,379.020 105.200,378.800 105.200 C 378.580 105.200,378.400 104.840,378.400 104.400 C 378.400 103.960,378.220 103.600,378.000 103.600 C 377.780 103.600,377.600 103.240,377.600 102.800 C 377.600 102.360,377.420 102.000,377.200 102.000 C 376.980 102.000,376.800 101.680,376.800 101.288 C 376.800 100.897,376.440 100.317,376.000 100.000 C 375.560 99.683,375.200 99.120,375.200 98.749 C 375.200 97.996,373.672 94.887,372.900 94.071 C 372.625 93.781,372.400 93.403,372.400 93.233 C 372.400 93.062,372.085 92.543,371.700 92.080 C 371.315 91.617,370.460 90.338,369.800 89.239 C 369.140 88.139,368.195 87.020,367.700 86.752 C 367.205 86.484,366.800 85.975,366.800 85.621 C 366.800 85.266,366.440 84.717,366.000 84.400 C 365.560 84.083,365.200 83.543,365.200 83.200 C 365.200 82.857,364.840 82.317,364.400 82.000 C 363.960 81.683,363.600 81.220,363.600 80.971 C 363.600 80.722,363.060 79.954,362.400 79.263 C 361.740 78.572,361.200 77.826,361.200 77.604 C 361.200 77.382,361.020 77.200,360.800 77.200 C 360.580 77.200,360.400 77.001,360.400 76.758 C 360.400 76.514,359.950 75.961,359.400 75.529 C 358.850 75.096,358.400 74.529,358.400 74.269 C 358.400 74.009,357.694 73.046,356.832 72.131 C 355.969 71.215,355.058 70.083,354.808 69.615 C 354.557 69.147,353.742 68.097,352.995 67.282 C 352.248 66.467,350.413 64.362,348.918 62.604 C 344.895 57.875,340.692 53.760,335.637 49.600 C 334.701 48.830,333.326 47.615,332.581 46.900 C 331.836 46.185,331.044 45.600,330.820 45.600 C 330.597 45.600,329.569 44.790,328.535 43.800 C 327.502 42.810,326.341 42.000,325.955 42.000 C 325.570 42.000,325.149 41.669,325.020 41.264 C 324.892 40.859,324.340 40.289,323.793 39.996 C 323.247 39.704,322.800 39.315,322.800 39.132 C 322.800 38.950,322.570 38.800,322.288 38.800 C 322.007 38.800,321.517 38.440,321.200 38.000 C 320.883 37.560,320.375 37.200,320.072 37.200 C 319.769 37.200,319.017 36.660,318.400 36.000 C 317.783 35.340,317.031 34.800,316.728 34.800 C 316.425 34.800,315.917 34.440,315.600 34.000 C 315.283 33.560,314.734 33.200,314.379 33.200 C 314.025 33.200,313.516 32.795,313.248 32.300 C 312.980 31.805,311.855 30.860,310.747 30.200 C 309.639 29.540,308.523 28.820,308.267 28.600 C 308.010 28.380,306.990 27.763,306.000 27.230 C 305.010 26.696,304.110 26.156,304.000 26.030 C 303.585 25.553,301.987 24.800,301.389 24.800 C 301.047 24.800,300.380 24.440,299.908 24.000 C 299.436 23.560,298.813 23.200,298.525 23.200 C 298.236 23.200,298.000 23.020,298.000 22.800 C 298.000 22.580,297.640 22.400,297.200 22.400 C 296.760 22.400,296.400 22.220,296.400 22.000 C 296.400 21.780,296.040 21.600,295.600 21.600 C 295.160 21.600,294.800 21.420,294.800 21.200 C 294.800 20.980,294.440 20.800,294.000 20.800 C 293.560 20.800,293.200 20.620,293.200 20.400 C 293.200 20.180,292.840 20.000,292.400 20.000 C 291.960 20.000,291.600 19.854,291.600 19.675 C 291.600 19.496,290.970 19.102,290.200 18.800 C 289.430 18.498,288.800 18.104,288.800 17.925 C 288.800 17.746,288.440 17.600,288.000 17.600 C 287.560 17.600,287.200 17.420,287.200 17.200 C 287.200 16.980,286.840 16.800,286.400 16.800 C 285.960 16.800,285.600 16.620,285.600 16.400 C 285.600 16.180,285.328 16.000,284.995 16.000 C 284.407 16.000,283.982 15.833,282.105 14.862 C 281.613 14.608,280.938 14.400,280.605 14.400 C 280.272 14.400,280.000 14.220,280.000 14.000 C 280.000 13.780,279.651 13.600,279.224 13.600 C 278.797 13.600,278.336 13.420,278.200 13.200 C 278.064 12.980,277.513 12.800,276.976 12.800 C 276.439 12.800,276.000 12.620,276.000 12.400 C 276.000 12.180,275.651 12.000,275.224 12.000 C 274.797 12.000,274.336 11.820,274.200 11.600 C 274.064 11.380,273.549 11.200,273.056 11.200 C 272.563 11.200,271.989 11.037,271.780 10.839 C 271.233 10.318,264.939 8.400,263.779 8.400 C 263.241 8.400,262.800 8.220,262.800 8.000 C 262.800 7.780,262.260 7.600,261.600 7.600 C 260.940 7.600,260.400 7.420,260.400 7.200 C 260.400 6.980,259.781 6.800,259.024 6.800 C 258.267 6.800,257.536 6.620,257.400 6.400 C 257.264 6.180,256.724 6.000,256.200 6.000 C 255.676 6.000,255.136 5.820,255.000 5.600 C 254.864 5.380,254.133 5.200,253.376 5.200 C 252.619 5.200,252.000 5.020,252.000 4.800 C 252.000 4.580,251.280 4.400,250.400 4.400 C 249.520 4.400,248.800 4.220,248.800 4.000 C 248.800 3.780,248.080 3.600,247.200 3.600 C 246.320 3.600,245.600 3.420,245.600 3.200 C 245.600 2.980,244.700 2.800,243.600 2.800 C 242.500 2.800,241.600 2.620,241.600 2.400 C 241.600 2.180,240.711 2.000,239.624 2.000 C 238.537 2.000,237.536 1.820,237.400 1.600 C 237.264 1.380,236.098 1.200,234.810 1.200 C 233.291 1.200,232.408 1.024,232.300 0.700 C 232.139 0.217,180.128 -0.145,172.100 0.281 M214.200 108.009 C 220.088 108.436,220.706 108.535,227.888 110.191 C 247.595 114.735,265.070 126.742,276.300 143.455 C 283.824 154.652,287.765 164.738,289.563 177.400 C 290.683 185.286,290.804 190.144,290.794 226.600 C 290.784 266.447,290.740 267.581,289.001 272.600 C 280.605 296.832,246.700 296.157,238.769 271.600 L 237.800 268.600 237.576 226.200 L 237.351 183.800 236.443 181.055 C 230.307 162.505,209.255 155.168,193.200 165.984 C 190.842 167.573,190.509 167.522,190.017 165.500 C 186.290 150.211,180.255 137.595,169.589 122.800 C 167.288 119.608,167.404 119.398,173.000 116.599 C 184.140 111.026,191.761 109.078,208.000 107.656 C 208.330 107.627,211.120 107.786,214.200 108.009 M139.200 114.567 C 148.039 116.731,153.203 121.318,162.683 135.424 C 166.503 141.108,172.450 153.488,174.584 160.200 C 180.857 179.925,181.000 181.484,181.000 230.000 L 181.000 268.600 180.044 271.400 C 172.252 294.234,143.722 297.490,131.665 276.922 C 128.336 271.243,128.357 271.518,127.999 228.800 C 127.811 206.460,127.517 190.353,127.269 188.800 C 125.497 177.739,121.109 167.331,115.101 159.942 C 109.696 153.294,107.742 148.926,107.340 142.600 C 106.922 136.008,108.002 131.695,111.446 126.200 C 117.097 117.187,129.193 112.117,139.200 114.567 " stroke="none" fill="#642c93" fill-rule="evenodd"></path><path id="path3" d="M208.105 107.887 C 208.714 107.979,209.614 107.977,210.105 107.882 C 210.597 107.787,210.100 107.711,209.000 107.714 C 207.900 107.717,207.497 107.795,208.105 107.887 M128.000 114.597 C 121.420 116.071,114.957 120.601,111.446 126.200 C 109.129 129.896,107.997 132.760,107.517 136.142 C 106.261 144.991,108.398 151.697,115.101 159.942 C 121.109 167.331,125.497 177.739,127.269 188.800 C 127.517 190.353,127.811 206.460,127.999 228.800 C 128.357 271.518,128.336 271.243,131.665 276.922 C 143.722 297.490,172.252 294.234,180.044 271.400 L 181.000 268.600 181.000 230.000 C 181.000 181.484,180.857 179.925,174.584 160.200 C 169.542 144.343,156.686 124.188,147.800 118.208 C 142.367 114.551,134.560 113.127,128.000 114.597 M137.875 115.024 C 146.655 117.034,150.214 119.630,157.860 129.600 C 169.245 144.448,176.994 164.122,179.500 184.542 C 180.601 193.518,180.559 267.948,179.450 271.200 C 171.002 295.993,139.151 296.251,129.859 271.602 C 129.048 269.449,129.023 268.551,128.768 231.600 C 128.467 187.988,128.438 187.587,124.814 176.747 C 122.366 169.424,120.261 165.657,113.970 157.348 C 100.679 139.791,110.221 117.024,131.800 114.805 C 133.340 114.647,134.724 114.491,134.875 114.459 C 135.027 114.426,136.377 114.681,137.875 115.024 M206.500 161.076 C 206.885 161.176,207.515 161.176,207.900 161.076 C 208.285 160.975,207.970 160.893,207.200 160.893 C 206.430 160.893,206.115 160.975,206.500 161.076 M290.509 188.400 C 290.509 189.390,290.587 189.795,290.682 189.300 C 290.778 188.805,290.778 187.995,290.682 187.500 C 290.587 187.005,290.509 187.410,290.509 188.400 M263.505 290.683 C 264.002 290.779,264.722 290.775,265.105 290.675 C 265.487 290.575,265.080 290.496,264.200 290.501 C 263.320 290.505,263.007 290.587,263.505 290.683 " stroke="none" fill="#a46f8e" fill-rule="evenodd"></path><path id="path4" d="M200.600 108.384 C 190.130 109.633,177.889 113.646,169.303 118.645 C 167.494 119.698,167.510 119.740,172.181 126.315 C 180.549 138.094,185.999 149.689,189.609 163.400 C 190.690 167.505,190.816 167.610,192.893 166.125 C 204.147 158.076,219.846 159.467,229.806 169.396 C 232.923 172.503,236.107 178.769,237.327 184.200 C 237.477 184.866,237.515 184.837,237.554 184.028 C 237.641 182.199,236.031 177.880,233.899 174.222 C 225.824 160.367,206.841 156.181,193.328 165.275 C 191.844 166.273,190.800 166.678,190.800 166.255 C 190.800 165.799,189.012 159.003,188.312 156.800 C 186.104 149.845,181.302 139.248,178.117 134.303 C 177.514 133.366,176.780 132.153,176.486 131.608 C 176.192 131.062,175.416 129.892,174.762 129.008 C 169.920 122.465,168.758 120.714,168.871 120.129 C 169.027 119.321,171.620 117.837,177.112 115.412 C 183.245 112.704,187.921 111.222,194.200 109.997 C 195.520 109.739,197.500 109.331,198.600 109.091 C 201.208 108.521,217.202 108.541,219.800 109.118 C 220.900 109.362,222.880 109.777,224.200 110.040 C 225.520 110.304,227.590 110.778,228.800 111.094 C 230.010 111.411,231.630 111.829,232.400 112.024 C 258.589 118.660,282.324 144.378,287.935 172.200 C 289.850 181.691,289.800 180.272,289.800 225.600 L 289.800 268.600 288.859 271.200 C 282.739 288.100,265.717 294.712,250.783 285.990 C 246.109 283.260,241.008 277.269,239.922 273.233 C 239.769 272.665,239.421 271.300,239.148 270.200 C 238.875 269.100,238.584 268.504,238.501 268.875 C 237.795 272.047,242.882 280.923,247.391 284.386 C 264.696 297.676,287.933 287.515,290.348 265.600 C 290.912 260.484,290.930 194.961,290.370 187.000 C 288.479 160.135,278.961 141.391,258.993 125.213 C 243.675 112.802,220.227 106.044,200.600 108.384 M237.681 225.000 C 237.675 246.560,237.810 265.100,237.982 266.200 C 238.153 267.300,238.307 250.380,238.324 228.600 C 238.340 206.820,238.205 188.280,238.023 187.400 C 237.839 186.513,237.687 203.264,237.681 225.000 " stroke="none" fill="#b47979" fill-rule="evenodd"></path></g></svg>